<?xml version="1.0" standalone="no"?>
<!DOCTYPE svg PUBLIC "-//W3C//DTD SVG 20010904//EN"
 "http://www.w3.org/TR/2001/REC-SVG-20010904/DTD/svg10.dtd">
<svg version="1.0" xmlns="http://www.w3.org/2000/svg"
 width="370.000000pt" height="370.000000pt" viewBox="0 0 370.000000 370.000000"
 preserveAspectRatio="xMidYMid meet">
<metadata>
Created by potrace 1.11, written by Peter Selinger 2001-2013
</metadata>
<g transform="translate(0.000000,370.000000) scale(0.100000,-0.100000)"
fill="#000000" stroke="none">
<path d="M1246 3604 c-11 -28 -6 -43 20 -67 l26 -24 -39 -28 c-21 -15 -51 -44
-67 -64 -27 -35 -28 -38 -24 -138 l5 -103 -32 20 c-41 25 -61 25 -68 0 -7 -26
17 -52 73 -83 l45 -25 6 -83 c4 -46 12 -100 18 -119 6 -19 13 -52 15 -72 3
-21 10 -46 15 -56 14 -26 4 -33 -27 -21 -40 15 -72 3 -72 -27 0 -13 6 -26 13
-28 6 -2 33 -9 58 -16 33 -8 50 -19 58 -36 13 -29 15 -304 3 -304 -5 0 -18 12
-31 26 -25 29 -64 29 -69 0 -3 -13 14 -36 53 -71 l57 -53 -1 -123 c-1 -68 -6
-128 -10 -132 -5 -5 -18 5 -30 22 -24 33 -51 40 -71 16 -10 -12 -5 -23 27 -62
21 -26 41 -49 46 -51 4 -2 7 -35 7 -73 l0 -69 -90 0 c-50 0 -98 -4 -108 -9 -9
-5 -42 -19 -72 -32 -30 -13 -74 -38 -96 -56 -38 -30 -42 -37 -46 -90 -3 -32
-2 -67 2 -78 4 -11 10 -50 14 -87 3 -36 12 -84 19 -105 33 -89 37 -114 37
-210 0 -83 5 -114 26 -175 14 -40 31 -95 39 -123 12 -45 69 -242 94 -322 10
-34 63 -136 86 -167 11 -15 34 -20 122 -27 101 -7 137 -13 173 -26 8 -4 19 -5
23 -4 4 1 37 -4 72 -11 64 -11 65 -11 117 21 40 25 75 37 143 47 97 16 303 18
321 4 5 -5 47 -12 92 -16 74 -6 82 -5 88 12 10 25 39 53 92 87 27 17 42 35 42
48 0 26 26 75 43 82 8 3 17 24 21 47 4 23 13 54 20 69 8 15 16 47 19 71 3 25
12 77 21 115 9 39 19 102 22 140 3 39 13 96 21 128 7 32 13 98 13 145 -1 48 1
148 4 222 3 105 1 143 -11 175 -8 22 -17 53 -20 69 -5 25 -34 65 -48 66 -3 0
-12 3 -20 6 -8 4 -30 3 -48 0 -17 -4 -45 -8 -62 -9 -29 -2 -30 0 -27 33 5 48
27 80 57 80 13 0 36 11 52 24 25 22 26 26 15 51 l-12 27 -37 -22 c-46 -27 -58
-15 -37 35 18 43 16 77 -11 201 l-18 82 47 44 c32 31 45 50 40 62 -10 25 -51
20 -70 -9 -9 -14 -19 -25 -23 -25 -4 0 -15 26 -26 58 -10 31 -25 70 -33 86
-12 25 -11 33 8 78 20 46 20 51 6 73 -19 29 -44 23 -52 -11 -10 -38 -19 -29
-38 39 -10 34 -29 84 -42 110 -14 29 -24 67 -24 92 0 40 -18 75 -39 75 -19 0
-31 -28 -31 -71 0 -26 -5 -51 -11 -54 -6 -4 -23 -25 -39 -47 -28 -38 -29 -39
-42 -19 -15 25 -46 28 -55 6 -3 -9 7 -43 22 -76 28 -64 28 -75 -2 -174 -22
-72 -44 -115 -59 -115 -7 0 -25 5 -39 12 -14 6 -28 8 -32 5 -7 -8 27 -79 43
-89 8 -5 -3 -37 -35 -100 -26 -51 -52 -106 -58 -123 l-11 -30 -1 36 c-1 20 10
57 24 85 14 27 25 56 25 65 0 18 -26 33 -40 24 -21 -13 -24 23 -16 224 1 29 6
36 29 42 56 15 87 58 61 84 -15 14 -19 14 -51 -5 -19 -11 -38 -20 -42 -20 -5
0 -10 62 -13 138 -3 79 -10 148 -17 161 -15 27 -2 47 44 67 62 28 80 55 53 82
-17 17 -31 15 -72 -13 -45 -30 -46 -30 -46 -5 0 27 -35 155 -55 204 -17 39
-14 66 6 66 18 0 89 60 89 76 0 28 -48 28 -91 0 l-40 -27 -17 33 c-22 42 -96
116 -128 129 -14 5 -52 9 -85 9 -52 0 -63 4 -84 26 -13 14 -27 35 -30 45 -8
23 -50 26 -59 3z"/>
</g>
</svg>
